<?xml version="1.0" encoding="UTF-8"?>
<svg id="Layer_1" data-name="Layer 1" xmlns="http://www.w3.org/2000/svg" viewBox="0 0 2048 2048">
  <defs>
    <style>
      .cls-1 {
        fill: #3f5cb0;
      }

      .cls-2 {
        fill: #fff;
        stroke: #fff;
        stroke-miterlimit: 10;
        stroke-width: 5px;
      }
    </style>
  </defs>
  <rect class="cls-1" width="2048" height="2048" rx="392.07" ry="392.07"/>
  <g>
    <path class="cls-2" d="M339.69,796.48c.61-7.73,4.04-30.92,5.99-38.13,5.22-19.26,22.52-29.01,41.45-21.34,26.25,10.63,8.58,65.37,8.61,87.43.12,108.82,70.51,215.44,169.44,258.67,16.98,7.42,61.64,16.8,70.13,26.14,8.86,9.76,17.93,49.89,24.8,66.12,68.13,160.88,268.86,295.21,420.23,371.33,15.48,7.78,58.78,31.35,72.17,34.79,67.77,17.43,140.78-96.57,169.66-146.06,83.94-143.85,113.84-303.36,156.64-462.43-33.67,3.14-66.97,7.7-100.47.19l-5.27,2.23c-35.85,56.75-95.16,89.06-138.96,139.27-20.52,23.53-50.93,66.23-63.29,94.49-9.65,22.07-28.73,96.89-54.89,102.87-13.11,3-27.11-.94-33.97-13.02-11.9-20.94,9.12-40.55,17.61-59.49,54.04-120.62-4.97-262.11-126.95-309.87-10.8-4.23-22.93-6.4-33.93-10.16-1.48,30.25,52.26,113.48.03,121.95-31.63,5.13-39.34-46.02-46.23-69.09-34.6-115.99-37.03-203.63-135.62-289.59-63.34-55.23-103.22-58.51-179.3-80.09-37.19-10.54-30.39-55.38,1.77-57.52,14.39-.96,54.99,10.02,70.54,14.63,135.25,40.04,242.33,157.7,271.38,295.55,127.35,25.21,221.96,104.85,250.01,234.07.8,3.7-2.32,7.75,4.02,6.57,40.12-52.98,97.08-88.21,140.37-137.71-138.03-61.08-212.21-212.45-163.11-358.41,71.49-212.52,356.25-263.13,494.66-85.46,114.52,146.99,62.89,355.38-101.75,436.3-42.89,138.61-66.12,284.08-124.99,417.23-37.77,85.42-133.78,260.45-235.79,273.65h-32.09c-72.46-29.33-145.26-66.56-212.07-107.49-146.06-89.47-294.42-213.92-350.16-381.24-122.83-33.84-217.63-135.84-243.54-260.54-2.52-12.15-2.83-25.55-7.13-37,1.09-19.19-1.49-39.85,0-58.84ZM1419.53,462.83c-170,2.82-277.33,185.21-198.42,336,82.17,157.03,309.26,162.21,398.91,9.17,89.78-153.24-22.66-348.12-200.49-345.17Z"/>
    <path class="cls-2" d="M1395.37,487.04c229.44-23.41,321.54,271.53,133.37,382.11-164.03,96.4-358.63-59.09-301.98-240.52,22.68-72.63,91.83-133.76,168.61-141.59ZM1406.03,543.15c-205.51,23.21-153.55,347.65,59.48,292.16,167.57-43.64,126.07-313.12-59.48-292.16Z"/>
    <path class="cls-2" d="M1408.61,617.94c89.32-14.33,122.96,106.57,47.14,140.75-108.09,48.74-149.87-124.28-47.14-140.75ZM1422.02,673.98c-21.02,1.77-20.83,33.2-.71,34.5,27.76,1.8,23.38-36.41.71-34.5Z"/>
  </g>
</svg>